solid OpenSCAD_Model
  facet normal -1 0 0
    outer loop
      vertex 0 -19.35 0
      vertex 0 -16.1397 7.5
      vertex 0 -16.1397 0
    endloop
  endfacet
  facet normal -1 -0 0
    outer loop
      vertex 0 -16.1397 7.5
      vertex 0 -19.35 0
      vertex 0 -19.35 7.5
    endloop
  endfacet
  facet normal -1 0 0
    outer loop
      vertex 0 16.1397 0
      vertex 0 19.35 7.5
      vertex 0 19.35 0
    endloop
  endfacet
  facet normal -1 -0 0
    outer loop
      vertex 0 19.35 7.5
      vertex 0 16.1397 0
      vertex 0 16.1397 7.5
    endloop
  endfacet
  facet normal 0 0 1
    outer loop
      vertex 2.5 19.35 7.5
      vertex 2.49 18.09 7.5
      vertex 2.5 18.0397 7.5
    endloop
  endfacet
  facet normal 0 0 1
    outer loop
      vertex 0 19.35 7.5
      vertex 2.49 17.69 7.5
      vertex 2.49 18.09 7.5
    endloop
  endfacet
  facet normal -0 0 1
    outer loop
      vertex 0 19.35 7.5
      vertex 2.49 18.09 7.5
      vertex 2.5 19.35 7.5
    endloop
  endfacet
  facet normal 0 0 1
    outer loop
      vertex 2.49 17.69 7.5
      vertex 0 16.1397 7.5
      vertex 0.939727 15.2 7.5
    endloop
  endfacet
  facet normal -0 -0 1
    outer loop
      vertex 0.282892 15.4829 7.5
      vertex 0.939727 15.2 7.5
      vertex 0 16.1397 7.5
    endloop
  endfacet
  facet normal 0 0 1
    outer loop
      vertex 0.939727 15.2 7.5
      vertex 0.282892 15.4829 7.5
      vertex 0.607316 15.2661 7.5
    endloop
  endfacet
  facet normal 0 0 1
    outer loop
      vertex 2.49 17.69 7.5
      vertex 0 19.35 7.5
      vertex 0 16.1397 7.5
    endloop
  endfacet
  facet normal 0 0 1
    outer loop
      vertex 0.282892 15.4829 7.5
      vertex 0 16.1397 7.5
      vertex 0.0661204 15.8073 7.5
    endloop
  endfacet
  facet normal 0 0 1
    outer loop
      vertex 5.25 14.2603 7.5
      vertex 5.26 -14.21 7.5
      vertex 5.26 14.21 7.5
    endloop
  endfacet
  facet normal 0 0 1
    outer loop
      vertex 5.26 -14.21 7.5
      vertex 5.25 14.2603 7.5
      vertex 5.25 -14.2603 7.5
    endloop
  endfacet
  facet normal 0 0 1
    outer loop
      vertex 5.26 14.21 7.5
      vertex 7.75 14.3115 7.5
      vertex 7.69275 14.8928 7.5
    endloop
  endfacet
  facet normal 0 0 1
    outer loop
      vertex 7.75 14.3115 7.5
      vertex 5.26 14.21 7.5
      vertex 7.75 -14.3115 7.5
    endloop
  endfacet
  facet normal -0 0 1
    outer loop
      vertex 5.26 15.21 7.5
      vertex 7.69275 14.8928 7.5
      vertex 7.49358 15.5494 7.5
    endloop
  endfacet
  facet normal -0 0 1
    outer loop
      vertex 5.26 -14.21 7.5
      vertex 7.75 -14.3115 7.5
      vertex 5.26 14.21 7.5
    endloop
  endfacet
  facet normal 0 0 1
    outer loop
      vertex 5.26 15.21 7.5
      vertex 7.49358 15.5494 7.5
      vertex 7.17014 16.1545 7.5
    endloop
  endfacet
  facet normal 0 0 1
    outer loop
      vertex 7.75 -14.3115 7.5
      vertex 5.26 -14.21 7.5
      vertex 7.69275 -14.8928 7.5
    endloop
  endfacet
  facet normal 0 0 1
    outer loop
      vertex 5.26 15.21 7.5
      vertex 7.17014 16.1545 7.5
      vertex 6.73487 16.6849 7.5
    endloop
  endfacet
  facet normal 0 0 1
    outer loop
      vertex 5.26 -15.21 7.5
      vertex 7.69275 -14.8928 7.5
      vertex 5.26 -14.21 7.5
    endloop
  endfacet
  facet normal 0 0 1
    outer loop
      vertex 5.26 15.21 7.5
      vertex 6.73487 16.6849 7.5
      vertex 6.2045 17.1201 7.5
    endloop
  endfacet
  facet normal 0 0 1
    outer loop
      vertex 7.69275 -14.8928 7.5
      vertex 5.26 -15.21 7.5
      vertex 7.49358 -15.5494 7.5
    endloop
  endfacet
  facet normal 0 0 1
    outer loop
      vertex 5.26 15.21 7.5
      vertex 6.2045 17.1201 7.5
      vertex 5.59939 17.4436 7.5
    endloop
  endfacet
  facet normal 0 0 1
    outer loop
      vertex 7.49358 -15.5494 7.5
      vertex 5.26 -15.21 7.5
      vertex 7.17014 -16.1545 7.5
    endloop
  endfacet
  facet normal 0 0 1
    outer loop
      vertex 7.69275 14.8928 7.5
      vertex 5.26 15.21 7.5
      vertex 5.26 14.21 7.5
    endloop
  endfacet
  facet normal 0 0 1
    outer loop
      vertex 4.94282 17.6427 7.5
      vertex 5.26 15.21 7.5
      vertex 5.59939 17.4436 7.5
    endloop
  endfacet
  facet normal 0 0 1
    outer loop
      vertex 4.26 15.21 7.5
      vertex 4.94282 17.6427 7.5
      vertex 4.36153 17.7 7.5
    endloop
  endfacet
  facet normal 0 0 1
    outer loop
      vertex 4.94282 17.6427 7.5
      vertex 4.26 15.21 7.5
      vertex 5.26 15.21 7.5
    endloop
  endfacet
  facet normal 0 0 1
    outer loop
      vertex 4.36153 17.7 7.5
      vertex 2.89 17.69 7.5
      vertex 4.26 15.21 7.5
    endloop
  endfacet
  facet normal 0 -0 1
    outer loop
      vertex 2.89 17.69 7.5
      vertex 4.36153 17.7 7.5
      vertex 2.83973 17.7 7.5
    endloop
  endfacet
  facet normal 0 0 1
    outer loop
      vertex 7.17014 -16.1545 7.5
      vertex 5.26 -15.21 7.5
      vertex 6.73487 -16.6849 7.5
    endloop
  endfacet
  facet normal 0 0 1
    outer loop
      vertex 6.73487 -16.6849 7.5
      vertex 5.26 -15.21 7.5
      vertex 6.2045 -17.1201 7.5
    endloop
  endfacet
  facet normal 0 0 1
    outer loop
      vertex 6.2045 -17.1201 7.5
      vertex 5.26 -15.21 7.5
      vertex 5.59939 -17.4436 7.5
    endloop
  endfacet
  facet normal 0 0 1
    outer loop
      vertex 5.26 -15.21 7.5
      vertex 4.94282 -17.6427 7.5
      vertex 5.59939 -17.4436 7.5
    endloop
  endfacet
  facet normal -0 0 1
    outer loop
      vertex 4.26 -15.21 7.5
      vertex 4.94282 -17.6427 7.5
      vertex 5.26 -15.21 7.5
    endloop
  endfacet
  facet normal 0 0 1
    outer loop
      vertex 4.94282 -17.6427 7.5
      vertex 4.26 -15.21 7.5
      vertex 4.36153 -17.7 7.5
    endloop
  endfacet
  facet normal -0 0 1
    outer loop
      vertex 2.89 -17.69 7.5
      vertex 4.36153 -17.7 7.5
      vertex 4.26 -15.21 7.5
    endloop
  endfacet
  facet normal 0 0 1
    outer loop
      vertex 4.36153 -17.7 7.5
      vertex 2.89 -17.69 7.5
      vertex 2.83973 -17.7 7.5
    endloop
  endfacet
  facet normal -0 0 1
    outer loop
      vertex 2.49 17.69 7.5
      vertex 4.26 15.21 7.5
      vertex 2.89 17.69 7.5
    endloop
  endfacet
  facet normal 0 0 1
    outer loop
      vertex 4.26 15.21 7.5
      vertex 0.939727 15.2 7.5
      vertex 4.31027 15.2 7.5
    endloop
  endfacet
  facet normal 0 0 1
    outer loop
      vertex 0.939727 15.2 7.5
      vertex 4.26 15.21 7.5
      vertex 2.49 17.69 7.5
    endloop
  endfacet
  facet normal 0 0 1
    outer loop
      vertex 4.26 -15.21 7.5
      vertex 2.49 -17.69 7.5
      vertex 2.89 -17.69 7.5
    endloop
  endfacet
  facet normal -0 0 1
    outer loop
      vertex 0 -16.1397 7.5
      vertex 2.49 -17.69 7.5
      vertex 0.939727 -15.2 7.5
    endloop
  endfacet
  facet normal 0 0 1
    outer loop
      vertex 4.26 -15.21 7.5
      vertex 0.939727 -15.2 7.5
      vertex 2.49 -17.69 7.5
    endloop
  endfacet
  facet normal -0 0 1
    outer loop
      vertex 0.939727 -15.2 7.5
      vertex 4.26 -15.21 7.5
      vertex 4.31027 -15.2 7.5
    endloop
  endfacet
  facet normal -0 0 1
    outer loop
      vertex 2.49 -18.09 7.5
      vertex 2.5 -19.35 7.5
      vertex 2.5 -18.0397 7.5
    endloop
  endfacet
  facet normal 0 0 1
    outer loop
      vertex 0 -19.35 7.5
      vertex 2.49 -17.69 7.5
      vertex 0 -16.1397 7.5
    endloop
  endfacet
  facet normal 0 0 1
    outer loop
      vertex 0.282892 -15.4829 7.5
      vertex 0.939727 -15.2 7.5
      vertex 0.607316 -15.2661 7.5
    endloop
  endfacet
  facet normal 0 0 1
    outer loop
      vertex 0.939727 -15.2 7.5
      vertex 0.282892 -15.4829 7.5
      vertex 0 -16.1397 7.5
    endloop
  endfacet
  facet normal 0 0 1
    outer loop
      vertex 0 -16.1397 7.5
      vertex 0.282892 -15.4829 7.5
      vertex 0.0661204 -15.8073 7.5
    endloop
  endfacet
  facet normal 0 0 1
    outer loop
      vertex 2.49 -17.69 7.5
      vertex 0 -19.35 7.5
      vertex 2.49 -18.09 7.5
    endloop
  endfacet
  facet normal 0 0 1
    outer loop
      vertex 2.49 -18.09 7.5
      vertex 0 -19.35 7.5
      vertex 2.5 -19.35 7.5
    endloop
  endfacet
  facet normal 1 -0 0
    outer loop
      vertex 7.75 -14.3115 7.5
      vertex 7.75 14.3115 0
      vertex 7.75 14.3115 7.5
    endloop
  endfacet
  facet normal 1 0 0
    outer loop
      vertex 7.75 14.3115 0
      vertex 7.75 -14.3115 7.5
      vertex 7.75 -14.3115 0
    endloop
  endfacet
  facet normal 0 1 0
    outer loop
      vertex 4.36153 17.7 7.5
      vertex 2.83973 17.7 2.2204e-18
      vertex 2.83973 17.7 7.5
    endloop
  endfacet
  facet normal 0 1 -0
    outer loop
      vertex 4.36153 17.7 0
      vertex 2.83973 17.7 2.2204e-18
      vertex 4.36153 17.7 7.5
    endloop
  endfacet
  facet normal 0 1 0
    outer loop
      vertex 2.5 17.7 0
      vertex 2.83973 17.7 2.2204e-18
      vertex 4.36153 17.7 0
    endloop
  endfacet
  facet normal 0 1 0
    outer loop
      vertex 2.83973 17.7 2.2204e-18
      vertex 2.5 17.7 0
      vertex 2.5 17.7 2.2204e-18
    endloop
  endfacet
  facet normal 0 0 -1
    outer loop
      vertex 0 -19.35 0
      vertex 2.5 -17.7 0
      vertex 2.5 -19.35 0
    endloop
  endfacet
  facet normal 0 0 -1
    outer loop
      vertex 2.5 -17.7 0
      vertex 0 -16.1397 0
      vertex 0.939727 -15.2 0
    endloop
  endfacet
  facet normal 0 -0 -1
    outer loop
      vertex 0.282892 -15.4829 0
      vertex 0.939727 -15.2 0
      vertex 0 -16.1397 0
    endloop
  endfacet
  facet normal 0 0 -1
    outer loop
      vertex 0.939727 -15.2 0
      vertex 0.282892 -15.4829 0
      vertex 0.607316 -15.2661 0
    endloop
  endfacet
  facet normal -0 0 -1
    outer loop
      vertex 2.5 -17.7 0
      vertex 0 -19.35 0
      vertex 0 -16.1397 0
    endloop
  endfacet
  facet normal 0 0 -1
    outer loop
      vertex 0.282892 -15.4829 0
      vertex 0 -16.1397 0
      vertex 0.0661204 -15.8073 0
    endloop
  endfacet
  facet normal 0 0 -1
    outer loop
      vertex 5.25 -15.2 0
      vertex 7.75 -14.3115 0
      vertex 7.69275 -14.8928 0
    endloop
  endfacet
  facet normal -0 0 -1
    outer loop
      vertex 7.75 -14.3115 0
      vertex 5.25 -15.2 0
      vertex 7.75 14.3115 0
    endloop
  endfacet
  facet normal 0 0 -1
    outer loop
      vertex 5.25 -15.2 0
      vertex 7.69275 -14.8928 0
      vertex 7.49358 -15.5494 0
    endloop
  endfacet
  facet normal 0 0 -1
    outer loop
      vertex 5.25 15.2 0
      vertex 7.75 14.3115 0
      vertex 5.25 -15.2 0
    endloop
  endfacet
  facet normal 0 0 -1
    outer loop
      vertex 5.25 -15.2 0
      vertex 7.49358 -15.5494 0
      vertex 7.17014 -16.1545 0
    endloop
  endfacet
  facet normal 0 0 -1
    outer loop
      vertex 7.75 14.3115 0
      vertex 5.25 15.2 0
      vertex 7.69275 14.8928 0
    endloop
  endfacet
  facet normal 0 0 -1
    outer loop
      vertex 5.25 -15.2 0
      vertex 7.17014 -16.1545 0
      vertex 6.73487 -16.6849 0
    endloop
  endfacet
  facet normal 0 0 -1
    outer loop
      vertex 7.69275 14.8928 0
      vertex 5.25 15.2 0
      vertex 7.49358 15.5494 0
    endloop
  endfacet
  facet normal 0 0 -1
    outer loop
      vertex 5.25 -15.2 0
      vertex 6.73487 -16.6849 0
      vertex 6.2045 -17.1201 0
    endloop
  endfacet
  facet normal -0 0 -1
    outer loop
      vertex 7.49358 15.5494 0
      vertex 5.25 15.2 0
      vertex 7.17014 16.1545 0
    endloop
  endfacet
  facet normal 0 0 -1
    outer loop
      vertex 5.25 -15.2 0
      vertex 6.2045 -17.1201 0
      vertex 5.59939 -17.4436 0
    endloop
  endfacet
  facet normal -0 0 -1
    outer loop
      vertex 7.17014 16.1545 0
      vertex 5.25 15.2 0
      vertex 6.73487 16.6849 0
    endloop
  endfacet
  facet normal -0 0 -1
    outer loop
      vertex 6.73487 16.6849 0
      vertex 5.25 15.2 0
      vertex 6.2045 17.1201 0
    endloop
  endfacet
  facet normal 0 0 -1
    outer loop
      vertex 4.94282 -17.6427 0
      vertex 5.25 -15.2 0
      vertex 5.59939 -17.4436 0
    endloop
  endfacet
  facet normal 0 0 -1
    outer loop
      vertex 4.36153 -17.7 0
      vertex 5.25 -15.2 0
      vertex 4.94282 -17.6427 0
    endloop
  endfacet
  facet normal 0 0 -1
    outer loop
      vertex 2.5 -17.7 0
      vertex 5.25 -15.2 0
      vertex 4.36153 -17.7 0
    endloop
  endfacet
  facet normal -0 0 -1
    outer loop
      vertex 5.25 -15.2 0
      vertex 2.5 -17.7 0
      vertex 0.939727 -15.2 0
    endloop
  endfacet
  facet normal -0 0 -1
    outer loop
      vertex 6.2045 17.1201 0
      vertex 5.25 15.2 0
      vertex 5.59939 17.4436 0
    endloop
  endfacet
  facet normal 0 0 -1
    outer loop
      vertex 5.25 15.2 0
      vertex 4.94282 17.6427 0
      vertex 5.59939 17.4436 0
    endloop
  endfacet
  facet normal 0 0 -1
    outer loop
      vertex 5.25 15.2 0
      vertex 4.36153 17.7 0
      vertex 4.94282 17.6427 0
    endloop
  endfacet
  facet normal 0 0 -1
    outer loop
      vertex 5.25 15.2 0
      vertex 2.5 17.7 0
      vertex 4.36153 17.7 0
    endloop
  endfacet
  facet normal 0 0 -1
    outer loop
      vertex 0.939727 15.2 0
      vertex 2.5 17.7 0
      vertex 5.25 15.2 0
    endloop
  endfacet
  facet normal 0 0 -1
    outer loop
      vertex 0 16.1397 0
      vertex 2.5 17.7 0
      vertex 0.939727 15.2 0
    endloop
  endfacet
  facet normal 0 0 -1
    outer loop
      vertex 0.282892 15.4829 0
      vertex 0.939727 15.2 0
      vertex 0.607316 15.2661 0
    endloop
  endfacet
  facet normal 0 0 -1
    outer loop
      vertex 0.939727 15.2 0
      vertex 0.282892 15.4829 0
      vertex 0 16.1397 0
    endloop
  endfacet
  facet normal 0 0 -1
    outer loop
      vertex 0 16.1397 0
      vertex 0.282892 15.4829 0
      vertex 0.0661204 15.8073 0
    endloop
  endfacet
  facet normal 0 0 -1
    outer loop
      vertex 0 19.35 0
      vertex 2.5 17.7 0
      vertex 0 16.1397 0
    endloop
  endfacet
  facet normal 0 0 -1
    outer loop
      vertex 2.5 17.7 0
      vertex 0 19.35 0
      vertex 2.5 19.35 0
    endloop
  endfacet
  facet normal 0 -1 0
    outer loop
      vertex 2.83973 -17.7 7.7655e-17
      vertex 4.36153 -17.7 7.5
      vertex 2.83973 -17.7 7.5
    endloop
  endfacet
  facet normal 0 -1 0
    outer loop
      vertex 2.5 -17.7 0
      vertex 2.83973 -17.7 7.7655e-17
      vertex 2.5 -17.7 2.22045e-18
    endloop
  endfacet
  facet normal 0 -1 0
    outer loop
      vertex 2.83973 -17.7 7.7655e-17
      vertex 4.36153 -17.7 0
      vertex 4.36153 -17.7 7.5
    endloop
  endfacet
  facet normal 0 -1 0
    outer loop
      vertex 4.36153 -17.7 0
      vertex 2.83973 -17.7 7.7655e-17
      vertex 2.5 -17.7 0
    endloop
  endfacet
  facet normal 1 0 0
    outer loop
      vertex 2.5 -18.0397 7.5
      vertex 2.5 -19.35 7.5
      vertex 2.5 -18.0397 2.22045e-18
    endloop
  endfacet
  facet normal 1 -0 0
    outer loop
      vertex 2.5 -18.0397 2.22045e-18
      vertex 2.5 -17.7 0
      vertex 2.5 -17.7 2.22045e-18
    endloop
  endfacet
  facet normal 1 0 0
    outer loop
      vertex 2.5 -18.0397 2.22045e-18
      vertex 2.5 -19.35 0
      vertex 2.5 -17.7 0
    endloop
  endfacet
  facet normal 1 0 0
    outer loop
      vertex 2.5 -19.35 0
      vertex 2.5 -18.0397 2.22045e-18
      vertex 2.5 -19.35 7.5
    endloop
  endfacet
  facet normal 1 -0 0
    outer loop
      vertex 2.5 18.0397 7.5
      vertex 2.5 19.35 0
      vertex 2.5 19.35 7.5
    endloop
  endfacet
  facet normal 1 -0 0
    outer loop
      vertex 2.5 18.0397 7.76547e-17
      vertex 2.5 19.35 0
      vertex 2.5 18.0397 7.5
    endloop
  endfacet
  facet normal 1 0 0
    outer loop
      vertex 2.5 17.7 0
      vertex 2.5 18.0397 7.76547e-17
      vertex 2.5 17.7 2.2204e-18
    endloop
  endfacet
  facet normal 1 0 0
    outer loop
      vertex 2.5 18.0397 7.76547e-17
      vertex 2.5 17.7 0
      vertex 2.5 19.35 0
    endloop
  endfacet
  facet normal 0 -1 0
    outer loop
      vertex 0 -19.35 0
      vertex 2.5 -19.35 7.5
      vertex 0 -19.35 7.5
    endloop
  endfacet
  facet normal 0 -1 -0
    outer loop
      vertex 2.5 -19.35 7.5
      vertex 0 -19.35 0
      vertex 2.5 -19.35 0
    endloop
  endfacet
  facet normal 0 1 -0
    outer loop
      vertex 2.5 19.35 0
      vertex 0 19.35 7.5
      vertex 2.5 19.35 7.5
    endloop
  endfacet
  facet normal 0 1 0
    outer loop
      vertex 0 19.35 7.5
      vertex 2.5 19.35 0
      vertex 0 19.35 0
    endloop
  endfacet
  facet normal 0.0980198 -0.995184 0
    outer loop
      vertex 4.36153 -17.7 0
      vertex 4.94282 -17.6427 7.5
      vertex 4.36153 -17.7 7.5
    endloop
  endfacet
  facet normal 0.0980198 -0.995184 0
    outer loop
      vertex 4.94282 -17.6427 7.5
      vertex 4.36153 -17.7 0
      vertex 4.94282 -17.6427 0
    endloop
  endfacet
  facet normal 0.881921 -0.471398 0
    outer loop
      vertex 7.17014 -16.1545 7.5
      vertex 7.49358 -15.5494 0
      vertex 7.49358 -15.5494 7.5
    endloop
  endfacet
  facet normal 0.881921 -0.471398 0
    outer loop
      vertex 7.49358 -15.5494 0
      vertex 7.17014 -16.1545 7.5
      vertex 7.17014 -16.1545 0
    endloop
  endfacet
  facet normal 0.995185 -0.0980162 0
    outer loop
      vertex 7.69275 -14.8928 7.5
      vertex 7.75 -14.3115 0
      vertex 7.75 -14.3115 7.5
    endloop
  endfacet
  facet normal 0.995185 -0.0980162 0
    outer loop
      vertex 7.75 -14.3115 0
      vertex 7.69275 -14.8928 7.5
      vertex 7.69275 -14.8928 0
    endloop
  endfacet
  facet normal 0.634393 -0.77301 0
    outer loop
      vertex 6.2045 -17.1201 0
      vertex 6.73487 -16.6849 7.5
      vertex 6.2045 -17.1201 7.5
    endloop
  endfacet
  facet normal 0.634393 -0.77301 0
    outer loop
      vertex 6.73487 -16.6849 7.5
      vertex 6.2045 -17.1201 0
      vertex 6.73487 -16.6849 0
    endloop
  endfacet
  facet normal 0.773011 -0.634393 0
    outer loop
      vertex 6.73487 -16.6849 7.5
      vertex 7.17014 -16.1545 0
      vertex 7.17014 -16.1545 7.5
    endloop
  endfacet
  facet normal 0.773011 -0.634393 0
    outer loop
      vertex 7.17014 -16.1545 0
      vertex 6.73487 -16.6849 7.5
      vertex 6.73487 -16.6849 0
    endloop
  endfacet
  facet normal 0.95694 -0.290285 0
    outer loop
      vertex 7.49358 -15.5494 7.5
      vertex 7.69275 -14.8928 0
      vertex 7.69275 -14.8928 7.5
    endloop
  endfacet
  facet normal 0.95694 -0.290285 0
    outer loop
      vertex 7.69275 -14.8928 0
      vertex 7.49358 -15.5494 7.5
      vertex 7.49358 -15.5494 0
    endloop
  endfacet
  facet normal 0.471397 -0.881921 0
    outer loop
      vertex 5.59939 -17.4436 0
      vertex 6.2045 -17.1201 7.5
      vertex 5.59939 -17.4436 7.5
    endloop
  endfacet
  facet normal 0.471397 -0.881921 0
    outer loop
      vertex 6.2045 -17.1201 7.5
      vertex 5.59939 -17.4436 0
      vertex 6.2045 -17.1201 0
    endloop
  endfacet
  facet normal 0.290283 -0.956941 0
    outer loop
      vertex 4.94282 -17.6427 0
      vertex 5.59939 -17.4436 7.5
      vertex 4.94282 -17.6427 7.5
    endloop
  endfacet
  facet normal 0.290283 -0.956941 0
    outer loop
      vertex 5.59939 -17.4436 7.5
      vertex 4.94282 -17.6427 0
      vertex 5.59939 -17.4436 0
    endloop
  endfacet
  facet normal -0.195089 0.980786 0
    outer loop
      vertex 0.939727 -15.2 0
      vertex 0.607316 -15.2661 7.5
      vertex 0.939727 -15.2 7.5
    endloop
  endfacet
  facet normal -0.195089 0.980786 0
    outer loop
      vertex 0.607316 -15.2661 7.5
      vertex 0.939727 -15.2 0
      vertex 0.607316 -15.2661 0
    endloop
  endfacet
  facet normal -0.555569 0.831471 0
    outer loop
      vertex 0.607316 -15.2661 0
      vertex 0.282892 -15.4829 7.5
      vertex 0.607316 -15.2661 7.5
    endloop
  endfacet
  facet normal -0.555569 0.831471 0
    outer loop
      vertex 0.282892 -15.4829 7.5
      vertex 0.607316 -15.2661 0
      vertex 0.282892 -15.4829 0
    endloop
  endfacet
  facet normal -0.831471 0.555569 0
    outer loop
      vertex 0.0661204 -15.8073 0
      vertex 0.282892 -15.4829 7.5
      vertex 0.282892 -15.4829 0
    endloop
  endfacet
  facet normal -0.831471 0.555569 0
    outer loop
      vertex 0.282892 -15.4829 7.5
      vertex 0.0661204 -15.8073 0
      vertex 0.0661204 -15.8073 7.5
    endloop
  endfacet
  facet normal -0.980785 0.19509 0
    outer loop
      vertex 0 -16.1397 0
      vertex 0.0661204 -15.8073 7.5
      vertex 0.0661204 -15.8073 0
    endloop
  endfacet
  facet normal -0.980785 0.19509 0
    outer loop
      vertex 0.0661204 -15.8073 7.5
      vertex 0 -16.1397 0
      vertex 0 -16.1397 7.5
    endloop
  endfacet
  facet normal 0.995185 0.0980162 0
    outer loop
      vertex 7.75 14.3115 7.5
      vertex 7.69275 14.8928 0
      vertex 7.69275 14.8928 7.5
    endloop
  endfacet
  facet normal 0.995185 0.0980162 0
    outer loop
      vertex 7.69275 14.8928 0
      vertex 7.75 14.3115 7.5
      vertex 7.75 14.3115 0
    endloop
  endfacet
  facet normal 0.471397 0.881921 -0
    outer loop
      vertex 6.2045 17.1201 0
      vertex 5.59939 17.4436 7.5
      vertex 6.2045 17.1201 7.5
    endloop
  endfacet
  facet normal 0.471397 0.881921 0
    outer loop
      vertex 5.59939 17.4436 7.5
      vertex 6.2045 17.1201 0
      vertex 5.59939 17.4436 0
    endloop
  endfacet
  facet normal 0.0980198 0.995184 -0
    outer loop
      vertex 4.94282 17.6427 0
      vertex 4.36153 17.7 7.5
      vertex 4.94282 17.6427 7.5
    endloop
  endfacet
  facet normal 0.0980198 0.995184 0
    outer loop
      vertex 4.36153 17.7 7.5
      vertex 4.94282 17.6427 0
      vertex 4.36153 17.7 0
    endloop
  endfacet
  facet normal 0.773011 0.634393 0
    outer loop
      vertex 7.17014 16.1545 7.5
      vertex 6.73487 16.6849 0
      vertex 6.73487 16.6849 7.5
    endloop
  endfacet
  facet normal 0.773011 0.634393 0
    outer loop
      vertex 6.73487 16.6849 0
      vertex 7.17014 16.1545 7.5
      vertex 7.17014 16.1545 0
    endloop
  endfacet
  facet normal 0.634393 0.77301 -0
    outer loop
      vertex 6.73487 16.6849 0
      vertex 6.2045 17.1201 7.5
      vertex 6.73487 16.6849 7.5
    endloop
  endfacet
  facet normal 0.634393 0.77301 0
    outer loop
      vertex 6.2045 17.1201 7.5
      vertex 6.73487 16.6849 0
      vertex 6.2045 17.1201 0
    endloop
  endfacet
  facet normal 0.290283 0.956941 -0
    outer loop
      vertex 5.59939 17.4436 0
      vertex 4.94282 17.6427 7.5
      vertex 5.59939 17.4436 7.5
    endloop
  endfacet
  facet normal 0.290283 0.956941 0
    outer loop
      vertex 4.94282 17.6427 7.5
      vertex 5.59939 17.4436 0
      vertex 4.94282 17.6427 0
    endloop
  endfacet
  facet normal 0.881921 0.471398 0
    outer loop
      vertex 7.49358 15.5494 7.5
      vertex 7.17014 16.1545 0
      vertex 7.17014 16.1545 7.5
    endloop
  endfacet
  facet normal 0.881921 0.471398 0
    outer loop
      vertex 7.17014 16.1545 0
      vertex 7.49358 15.5494 7.5
      vertex 7.49358 15.5494 0
    endloop
  endfacet
  facet normal 0.95694 0.290285 0
    outer loop
      vertex 7.69275 14.8928 7.5
      vertex 7.49358 15.5494 0
      vertex 7.49358 15.5494 7.5
    endloop
  endfacet
  facet normal 0.95694 0.290285 0
    outer loop
      vertex 7.49358 15.5494 0
      vertex 7.69275 14.8928 7.5
      vertex 7.69275 14.8928 0
    endloop
  endfacet
  facet normal -0.980785 -0.19509 0
    outer loop
      vertex 0.0661204 15.8073 0
      vertex 0 16.1397 7.5
      vertex 0 16.1397 0
    endloop
  endfacet
  facet normal -0.980785 -0.19509 0
    outer loop
      vertex 0 16.1397 7.5
      vertex 0.0661204 15.8073 0
      vertex 0.0661204 15.8073 7.5
    endloop
  endfacet
  facet normal -0.831471 -0.555569 0
    outer loop
      vertex 0.282892 15.4829 0
      vertex 0.0661204 15.8073 7.5
      vertex 0.0661204 15.8073 0
    endloop
  endfacet
  facet normal -0.831471 -0.555569 0
    outer loop
      vertex 0.0661204 15.8073 7.5
      vertex 0.282892 15.4829 0
      vertex 0.282892 15.4829 7.5
    endloop
  endfacet
  facet normal -0.555569 -0.831471 0
    outer loop
      vertex 0.282892 15.4829 0
      vertex 0.607316 15.2661 7.5
      vertex 0.282892 15.4829 7.5
    endloop
  endfacet
  facet normal -0.555569 -0.831471 -0
    outer loop
      vertex 0.607316 15.2661 7.5
      vertex 0.282892 15.4829 0
      vertex 0.607316 15.2661 0
    endloop
  endfacet
  facet normal -0.195089 -0.980786 0
    outer loop
      vertex 0.607316 15.2661 0
      vertex 0.939727 15.2 7.5
      vertex 0.607316 15.2661 7.5
    endloop
  endfacet
  facet normal -0.195089 -0.980786 -0
    outer loop
      vertex 0.939727 15.2 7.5
      vertex 0.607316 15.2661 0
      vertex 0.939727 15.2 0
    endloop
  endfacet
  facet normal -1 0 0
    outer loop
      vertex 5.25 15.2 0
      vertex 5.25 14.2603 2.10882e-16
      vertex 5.25 15.2 2.22049e-18
    endloop
  endfacet
  facet normal -1 -0 0
    outer loop
      vertex 5.25 14.2603 2.10882e-16
      vertex 5.25 -14.2603 2.22045e-18
      vertex 5.25 14.2603 7.5
    endloop
  endfacet
  facet normal -1 0 0
    outer loop
      vertex 5.25 15.2 0
      vertex 5.25 -14.2603 2.22045e-18
      vertex 5.25 14.2603 2.10882e-16
    endloop
  endfacet
  facet normal -1 0 0
    outer loop
      vertex 5.25 -15.2 0
      vertex 5.25 -14.2603 2.22045e-18
      vertex 5.25 15.2 0
    endloop
  endfacet
  facet normal -1 -0 0
    outer loop
      vertex 5.25 -14.2603 2.22045e-18
      vertex 5.25 -15.2 0
      vertex 5.25 -15.2 2.22045e-18
    endloop
  endfacet
  facet normal -1 -0 0
    outer loop
      vertex 5.25 14.2603 7.5
      vertex 5.25 -14.2603 2.22045e-18
      vertex 5.25 -14.2603 7.5
    endloop
  endfacet
  facet normal 0 -1 0
    outer loop
      vertex 0.939727 15.2 7.5
      vertex 4.31027 15.2 2.22049e-18
      vertex 4.31027 15.2 7.5
    endloop
  endfacet
  facet normal 0 -1 0
    outer loop
      vertex 0.939727 15.2 0
      vertex 4.31027 15.2 2.22049e-18
      vertex 0.939727 15.2 7.5
    endloop
  endfacet
  facet normal 0 -1 0
    outer loop
      vertex 5.25 15.2 0
      vertex 4.31027 15.2 2.22049e-18
      vertex 0.939727 15.2 0
    endloop
  endfacet
  facet normal 0 -1 0
    outer loop
      vertex 4.31027 15.2 2.22049e-18
      vertex 5.25 15.2 0
      vertex 5.25 15.2 2.22049e-18
    endloop
  endfacet
  facet normal 0 1 -0
    outer loop
      vertex 4.31027 -15.2 2.10881e-16
      vertex 0.939727 -15.2 7.5
      vertex 4.31027 -15.2 7.5
    endloop
  endfacet
  facet normal 0 1 -0
    outer loop
      vertex 5.25 -15.2 0
      vertex 4.31027 -15.2 2.10881e-16
      vertex 5.25 -15.2 2.22045e-18
    endloop
  endfacet
  facet normal 0 1 0
    outer loop
      vertex 4.31027 -15.2 2.10881e-16
      vertex 0.939727 -15.2 0
      vertex 0.939727 -15.2 7.5
    endloop
  endfacet
  facet normal 0 1 0
    outer loop
      vertex 0.939727 -15.2 0
      vertex 4.31027 -15.2 2.10881e-16
      vertex 5.25 -15.2 0
    endloop
  endfacet
  facet normal -2.22045e-16 0 -1
    outer loop
      vertex 5.25 -15.2 2.22045e-18
      vertex 5.18388 -14.5927 1.69021e-17
      vertex 5.25 -14.2603 2.22045e-18
    endloop
  endfacet
  facet normal -2.22045e-16 7.20283e-23 -1
    outer loop
      vertex 5.25 -15.2 2.22045e-18
      vertex 4.96711 -14.9171 6.50352e-17
      vertex 5.18388 -14.5927 1.69021e-17
    endloop
  endfacet
  facet normal -2.22045e-16 1.07798e-22 -1
    outer loop
      vertex 5.25 -15.2 2.22045e-18
      vertex 4.64268 -15.1339 1.37072e-16
      vertex 4.96711 -14.9171 6.50352e-17
    endloop
  endfacet
  facet normal -2.22045e-16 4.01514e-22 -1
    outer loop
      vertex 4.64268 -15.1339 1.37072e-16
      vertex 5.25 -15.2 2.22045e-18
      vertex 4.31027 -15.2 2.10881e-16
    endloop
  endfacet
  facet normal -0 0 1
    outer loop
      vertex 5.18388 -14.5927 7.5
      vertex 5.26 -15.21 7.5
      vertex 5.26 -14.21 7.5
    endloop
  endfacet
  facet normal -0 0 1
    outer loop
      vertex 4.96711 -14.9171 7.5
      vertex 5.26 -15.21 7.5
      vertex 5.18388 -14.5927 7.5
    endloop
  endfacet
  facet normal -0 0 1
    outer loop
      vertex 4.64268 -15.1339 7.5
      vertex 5.26 -15.21 7.5
      vertex 4.96711 -14.9171 7.5
    endloop
  endfacet
  facet normal 0 0 1
    outer loop
      vertex 5.26 -15.21 7.5
      vertex 4.64268 -15.1339 7.5
      vertex 4.26 -15.21 7.5
    endloop
  endfacet
  facet normal -0.19509 0.980785 0
    outer loop
      vertex 4.64268 -15.1339 7.5
      vertex 4.31027 -15.2 2.10881e-16
      vertex 4.31027 -15.2 7.5
    endloop
  endfacet
  facet normal -0.19509 0.980785 0
    outer loop
      vertex 4.31027 -15.2 2.10881e-16
      vertex 4.64268 -15.1339 7.5
      vertex 4.64268 -15.1339 1.37072e-16
    endloop
  endfacet
  facet normal -0 0 1
    outer loop
      vertex 4.31027 -15.2 7.5
      vertex 4.26 -15.21 7.5
      vertex 4.64268 -15.1339 7.5
    endloop
  endfacet
  facet normal -0.831471 0.555569 0
    outer loop
      vertex 4.96711 -14.9171 6.50352e-17
      vertex 5.18388 -14.5927 7.5
      vertex 5.18388 -14.5927 1.69021e-17
    endloop
  endfacet
  facet normal -0.831471 0.555569 0
    outer loop
      vertex 5.18388 -14.5927 7.5
      vertex 4.96711 -14.9171 6.50352e-17
      vertex 4.96711 -14.9171 7.5
    endloop
  endfacet
  facet normal -0.555569 0.831471 0
    outer loop
      vertex 4.96711 -14.9171 7.5
      vertex 4.64268 -15.1339 1.37072e-16
      vertex 4.64268 -15.1339 7.5
    endloop
  endfacet
  facet normal -0.555569 0.831471 0
    outer loop
      vertex 4.64268 -15.1339 1.37072e-16
      vertex 4.96711 -14.9171 7.5
      vertex 4.96711 -14.9171 6.50352e-17
    endloop
  endfacet
  facet normal -0.980785 0.19509 0
    outer loop
      vertex 5.18388 -14.5927 1.69021e-17
      vertex 5.25 -14.2603 7.5
      vertex 5.25 -14.2603 2.22045e-18
    endloop
  endfacet
  facet normal -0.980785 0.19509 0
    outer loop
      vertex 5.25 -14.2603 7.5
      vertex 5.18388 -14.5927 1.69021e-17
      vertex 5.18388 -14.5927 7.5
    endloop
  endfacet
  facet normal -0 0 1
    outer loop
      vertex 5.25 -14.2603 7.5
      vertex 5.18388 -14.5927 7.5
      vertex 5.26 -14.21 7.5
    endloop
  endfacet
  facet normal 2.22045e-16 -6.46523e-22 -1
    outer loop
      vertex 2.73693 -17.7204 5.48287e-17
      vertex 2.5 -17.7 2.22045e-18
      vertex 2.83973 -17.7 7.7655e-17
    endloop
  endfacet
  facet normal 2.22045e-16 1.15685e-23 -1
    outer loop
      vertex 2.60716 -17.8072 2.60141e-17
      vertex 2.5 -17.7 2.22045e-18
      vertex 2.73693 -17.7204 5.48287e-17
    endloop
  endfacet
  facet normal 2.22045e-16 7.72987e-24 -1
    outer loop
      vertex 2.52045 -17.9369 6.76081e-18
      vertex 2.5 -17.7 2.22045e-18
      vertex 2.60716 -17.8072 2.60141e-17
    endloop
  endfacet
  facet normal 2.22045e-16 0 -1
    outer loop
      vertex 2.5 -17.7 2.22045e-18
      vertex 2.52045 -17.9369 6.76081e-18
      vertex 2.5 -18.0397 2.22045e-18
    endloop
  endfacet
  facet normal -0 0 1
    outer loop
      vertex 2.49 -17.69 7.5
      vertex 2.73693 -17.7204 7.5
      vertex 2.89 -17.69 7.5
    endloop
  endfacet
  facet normal 0 0 1
    outer loop
      vertex 2.49 -17.69 7.5
      vertex 2.60716 -17.8072 7.5
      vertex 2.73693 -17.7204 7.5
    endloop
  endfacet
  facet normal 0 0 1
    outer loop
      vertex 2.49 -17.69 7.5
      vertex 2.52045 -17.9369 7.5
      vertex 2.60716 -17.8072 7.5
    endloop
  endfacet
  facet normal 0 0 1
    outer loop
      vertex 2.52045 -17.9369 7.5
      vertex 2.49 -17.69 7.5
      vertex 2.49 -18.09 7.5
    endloop
  endfacet
  facet normal 0.195076 -0.980788 0
    outer loop
      vertex 2.73693 -17.7204 7.5
      vertex 2.83973 -17.7 7.7655e-17
      vertex 2.83973 -17.7 7.5
    endloop
  endfacet
  facet normal 0.195076 -0.980788 0
    outer loop
      vertex 2.83973 -17.7 7.7655e-17
      vertex 2.73693 -17.7204 7.5
      vertex 2.73693 -17.7204 5.48287e-17
    endloop
  endfacet
  facet normal 0 -0 1
    outer loop
      vertex 2.83973 -17.7 7.5
      vertex 2.89 -17.69 7.5
      vertex 2.73693 -17.7204 7.5
    endloop
  endfacet
  facet normal 0.555574 -0.831467 0
    outer loop
      vertex 2.60716 -17.8072 7.5
      vertex 2.73693 -17.7204 5.48287e-17
      vertex 2.73693 -17.7204 7.5
    endloop
  endfacet
  facet normal 0.555574 -0.831467 0
    outer loop
      vertex 2.73693 -17.7204 5.48287e-17
      vertex 2.60716 -17.8072 7.5
      vertex 2.60716 -17.8072 2.60141e-17
    endloop
  endfacet
  facet normal 0.831468 -0.555573 0
    outer loop
      vertex 2.52045 -17.9369 7.5
      vertex 2.60716 -17.8072 2.60141e-17
      vertex 2.60716 -17.8072 7.5
    endloop
  endfacet
  facet normal 0.831468 -0.555573 0
    outer loop
      vertex 2.60716 -17.8072 2.60141e-17
      vertex 2.52045 -17.9369 7.5
      vertex 2.52045 -17.9369 6.76081e-18
    endloop
  endfacet
  facet normal 0.980786 -0.195088 0
    outer loop
      vertex 2.5 -18.0397 7.5
      vertex 2.52045 -17.9369 6.76081e-18
      vertex 2.52045 -17.9369 7.5
    endloop
  endfacet
  facet normal 0.980786 -0.195088 0
    outer loop
      vertex 2.52045 -17.9369 6.76081e-18
      vertex 2.5 -18.0397 7.5
      vertex 2.5 -18.0397 2.22045e-18
    endloop
  endfacet
  facet normal 0 -0 1
    outer loop
      vertex 2.5 -18.0397 7.5
      vertex 2.52045 -17.9369 7.5
      vertex 2.49 -18.09 7.5
    endloop
  endfacet
  facet normal 8.60161e-22 -2.22045e-16 -1
    outer loop
      vertex 5.18388 14.5927 1.37072e-16
      vertex 5.25 15.2 2.22049e-18
      vertex 5.25 14.2603 2.10882e-16
    endloop
  endfacet
  facet normal -1.79664e-23 -2.22045e-16 -1
    outer loop
      vertex 4.96711 14.9171 6.50352e-17
      vertex 5.25 15.2 2.22049e-18
      vertex 5.18388 14.5927 1.37072e-16
    endloop
  endfacet
  facet normal -1.20047e-23 -2.22045e-16 -1
    outer loop
      vertex 4.64268 15.1339 1.69021e-17
      vertex 5.25 15.2 2.22049e-18
      vertex 4.96711 14.9171 6.50352e-17
    endloop
  endfacet
  facet normal -0 -2.22045e-16 -1
    outer loop
      vertex 5.25 15.2 2.22049e-18
      vertex 4.64268 15.1339 1.69021e-17
      vertex 4.31027 15.2 2.22049e-18
    endloop
  endfacet
  facet normal 0 0 1
    outer loop
      vertex 5.26 15.21 7.5
      vertex 5.18388 14.5927 7.5
      vertex 5.26 14.21 7.5
    endloop
  endfacet
  facet normal 0 0 1
    outer loop
      vertex 5.26 15.21 7.5
      vertex 4.96711 14.9171 7.5
      vertex 5.18388 14.5927 7.5
    endloop
  endfacet
  facet normal 0 0 1
    outer loop
      vertex 5.26 15.21 7.5
      vertex 4.64268 15.1339 7.5
      vertex 4.96711 14.9171 7.5
    endloop
  endfacet
  facet normal 0 -0 1
    outer loop
      vertex 4.64268 15.1339 7.5
      vertex 5.26 15.21 7.5
      vertex 4.26 15.21 7.5
    endloop
  endfacet
  facet normal -0.980785 -0.19509 0
    outer loop
      vertex 5.25 14.2603 2.10882e-16
      vertex 5.18388 14.5927 7.5
      vertex 5.18388 14.5927 1.37072e-16
    endloop
  endfacet
  facet normal -0.980785 -0.19509 0
    outer loop
      vertex 5.18388 14.5927 7.5
      vertex 5.25 14.2603 2.10882e-16
      vertex 5.25 14.2603 7.5
    endloop
  endfacet
  facet normal 0 0 1
    outer loop
      vertex 5.18388 14.5927 7.5
      vertex 5.25 14.2603 7.5
      vertex 5.26 14.21 7.5
    endloop
  endfacet
  facet normal -0.555569 -0.831471 0
    outer loop
      vertex 4.64268 15.1339 7.5
      vertex 4.96711 14.9171 6.50352e-17
      vertex 4.96711 14.9171 7.5
    endloop
  endfacet
  facet normal -0.555569 -0.831471 0
    outer loop
      vertex 4.96711 14.9171 6.50352e-17
      vertex 4.64268 15.1339 7.5
      vertex 4.64268 15.1339 1.69021e-17
    endloop
  endfacet
  facet normal -0.831471 -0.555569 0
    outer loop
      vertex 5.18388 14.5927 1.37072e-16
      vertex 4.96711 14.9171 7.5
      vertex 4.96711 14.9171 6.50352e-17
    endloop
  endfacet
  facet normal -0.831471 -0.555569 0
    outer loop
      vertex 4.96711 14.9171 7.5
      vertex 5.18388 14.5927 1.37072e-16
      vertex 5.18388 14.5927 7.5
    endloop
  endfacet
  facet normal -0.19509 -0.980785 0
    outer loop
      vertex 4.31027 15.2 7.5
      vertex 4.64268 15.1339 1.69021e-17
      vertex 4.64268 15.1339 7.5
    endloop
  endfacet
  facet normal -0.19509 -0.980785 0
    outer loop
      vertex 4.64268 15.1339 1.69021e-17
      vertex 4.31027 15.2 7.5
      vertex 4.31027 15.2 2.22049e-18
    endloop
  endfacet
  facet normal -0 -0 1
    outer loop
      vertex 4.31027 15.2 7.5
      vertex 4.64268 15.1339 7.5
      vertex 4.26 15.21 7.5
    endloop
  endfacet
  facet normal 0 2.2206e-16 -1
    outer loop
      vertex 2.5 17.7 2.2204e-18
      vertex 2.73693 17.7204 6.76081e-18
      vertex 2.83973 17.7 2.2204e-18
    endloop
  endfacet
  facet normal 1.32681e-21 2.22044e-16 -1
    outer loop
      vertex 2.5 17.7 2.2204e-18
      vertex 2.60716 17.8072 2.60141e-17
      vertex 2.73693 17.7204 6.76081e-18
    endloop
  endfacet
  facet normal -4.5646e-22 2.22046e-16 -1
    outer loop
      vertex 2.5 17.7 2.2204e-18
      vertex 2.52045 17.9369 5.48287e-17
      vertex 2.60716 17.8072 2.60141e-17
    endloop
  endfacet
  facet normal 1.06076e-20 2.22045e-16 -1
    outer loop
      vertex 2.52045 17.9369 5.48287e-17
      vertex 2.5 17.7 2.2204e-18
      vertex 2.5 18.0397 7.76547e-17
    endloop
  endfacet
  facet normal 0 0 1
    outer loop
      vertex 2.73693 17.7204 7.5
      vertex 2.49 17.69 7.5
      vertex 2.89 17.69 7.5
    endloop
  endfacet
  facet normal 0 0 1
    outer loop
      vertex 2.60716 17.8072 7.5
      vertex 2.49 17.69 7.5
      vertex 2.73693 17.7204 7.5
    endloop
  endfacet
  facet normal 0 0 1
    outer loop
      vertex 2.52045 17.9369 7.5
      vertex 2.49 17.69 7.5
      vertex 2.60716 17.8072 7.5
    endloop
  endfacet
  facet normal 0 0 1
    outer loop
      vertex 2.49 17.69 7.5
      vertex 2.52045 17.9369 7.5
      vertex 2.49 18.09 7.5
    endloop
  endfacet
  facet normal 0.980786 0.195088 0
    outer loop
      vertex 2.52045 17.9369 7.5
      vertex 2.5 18.0397 7.76547e-17
      vertex 2.5 18.0397 7.5
    endloop
  endfacet
  facet normal 0.980786 0.195088 0
    outer loop
      vertex 2.5 18.0397 7.76547e-17
      vertex 2.52045 17.9369 7.5
      vertex 2.52045 17.9369 5.48287e-17
    endloop
  endfacet
  facet normal 0 0 1
    outer loop
      vertex 2.52045 17.9369 7.5
      vertex 2.5 18.0397 7.5
      vertex 2.49 18.09 7.5
    endloop
  endfacet
  facet normal 0.831468 0.555573 0
    outer loop
      vertex 2.60716 17.8072 7.5
      vertex 2.52045 17.9369 5.48287e-17
      vertex 2.52045 17.9369 7.5
    endloop
  endfacet
  facet normal 0.831468 0.555573 0
    outer loop
      vertex 2.52045 17.9369 5.48287e-17
      vertex 2.60716 17.8072 7.5
      vertex 2.60716 17.8072 2.60141e-17
    endloop
  endfacet
  facet normal 0.555574 0.831467 0
    outer loop
      vertex 2.73693 17.7204 7.5
      vertex 2.60716 17.8072 2.60141e-17
      vertex 2.60716 17.8072 7.5
    endloop
  endfacet
  facet normal 0.555574 0.831467 0
    outer loop
      vertex 2.60716 17.8072 2.60141e-17
      vertex 2.73693 17.7204 7.5
      vertex 2.73693 17.7204 6.76081e-18
    endloop
  endfacet
  facet normal 0.195076 0.980788 0
    outer loop
      vertex 2.83973 17.7 7.5
      vertex 2.73693 17.7204 6.76081e-18
      vertex 2.73693 17.7204 7.5
    endloop
  endfacet
  facet normal 0.195076 0.980788 0
    outer loop
      vertex 2.73693 17.7204 6.76081e-18
      vertex 2.83973 17.7 7.5
      vertex 2.83973 17.7 2.2204e-18
    endloop
  endfacet
  facet normal 0 0 1
    outer loop
      vertex 2.73693 17.7204 7.5
      vertex 2.89 17.69 7.5
      vertex 2.83973 17.7 7.5
    endloop
  endfacet
endsolid OpenSCAD_Model
